<svg xmlns="http://www.w3.org/2000/svg" width="832" height="588" viewBox="0 0 832 588" version="1.1">
	<path d="M 4 54 C 4 89.333, 4.346 108, 5 108 C 5.654 108, 6 89.333, 6 54 C 6 18.667, 5.654 0, 5 0 C 4.346 0, 4 18.667, 4 54 M 29.600 20.187 C 29.388 20.909, 28.663 24.200, 27.990 27.500 C 26.537 34.623, 25.092 37.658, 21.595 40.924 C 18.684 43.643, 18.358 45.223, 20.364 46.887 C 21.403 47.749, 24.801 47.177, 34.607 44.490 C 41.690 42.549, 49.805 40.688, 52.640 40.355 C 57.220 39.816, 57.923 39.988, 58.943 41.893 C 60.951 45.646, 57.085 67.766, 53.584 72.554 C 52.408 74.163, 51.851 74.253, 49.562 73.210 C 46.132 71.647, 44 71.671, 44 73.272 C 44 75.428, 50.036 82, 52.017 82 C 57.815 82, 62.865 70.763, 65.570 51.843 C 67.911 35.464, 67.937 35.905, 64.496 33.875 C 61.543 32.133, 61.218 32.172, 45.622 36.094 C 36.894 38.290, 29.613 39.946, 29.441 39.775 C 29.270 39.603, 30.666 36.997, 32.542 33.982 C 36.340 27.882, 36.875 24.062, 34.250 21.807 C 31.284 19.260, 30.003 18.814, 29.600 20.187 M 416.085 24.509 C 415.407 27.539, 413.311 32.309, 411.426 35.110 C 407.561 40.853, 407.447 41.296, 409.405 42.921 C 410.483 43.816, 412.362 43.728, 417.467 42.544 C 426.587 40.429, 426.355 40.351, 425.606 45.250 C 424.150 54.773, 414.422 68.865, 404.598 75.683 C 402.867 76.884, 401.987 78.170, 402.418 78.867 C 403.580 80.747, 412.464 75.287, 419.380 68.442 C 426.378 61.515, 432.046 51.110, 432.770 43.862 C 433.213 39.419, 433.386 39.199, 436.866 38.623 C 438.865 38.292, 442.179 38.017, 444.231 38.011 C 447.390 38.002, 448.059 38.387, 448.595 40.522 C 449.515 44.188, 446.272 60.819, 443.449 66.912 C 440.923 72.366, 440.895 72.377, 435.250 70.256 C 432.790 69.331, 434.062 73.097, 437.449 76.765 C 440.794 80.386, 440.983 80.454, 443.640 78.995 C 447.248 77.014, 450.206 69.535, 452.934 55.500 C 454.109 49.450, 455.552 42.717, 456.139 40.538 C 457.133 36.850, 457.023 36.417, 454.548 34.288 C 451.196 31.404, 449.241 31.426, 432.417 34.533 C 424.873 35.927, 418.342 36.939, 417.904 36.783 C 417.466 36.628, 418.658 34.046, 420.554 31.046 C 424.474 24.843, 424.761 22.998, 422.171 20.655 C 418.880 17.677, 417.405 18.611, 416.085 24.509 M 736.612 25.250 C 736.908 28.688, 736.775 33.956, 736.317 36.957 C 735.405 42.936, 735.812 42.676, 724.817 44.306 L 721.133 44.853 723.790 37.317 L 726.447 29.781 723.651 27.376 C 722.113 26.054, 720.500 25.191, 720.067 25.459 C 719.633 25.727, 719.050 28.791, 718.771 32.268 C 718.306 38.056, 717.047 41.560, 713.754 46.231 C 712.761 47.640, 712.851 48.279, 714.235 49.664 C 715.836 51.264, 716.452 51.265, 724.627 49.674 C 729.406 48.745, 733.551 48.218, 733.837 48.504 C 734.633 49.300, 730.018 59.985, 726.875 64.621 C 724.198 68.570, 718.307 74.605, 713 78.835 C 709.258 81.818, 711.424 82.678, 716.485 80.220 C 725.779 75.704, 733.395 66.666, 738.104 54.563 C 741.087 46.895, 741.932 46.282, 749.781 46.100 C 755.347 45.970, 755.740 47.140, 753.552 57.326 C 750.504 71.506, 748.217 75.257, 743.993 72.996 C 738.757 70.194, 738.700 73.325, 743.895 78.398 C 751.459 85.783, 754.617 81.344, 760.415 55.176 C 762.452 45.980, 762.696 43.482, 761.712 41.888 C 760.126 39.321, 756.899 38.569, 752.803 39.814 C 746.844 41.624, 742 41.986, 742 40.621 C 742 39.344, 743.662 29.293, 744.534 25.296 C 745.126 22.585, 741.604 19, 738.349 19 C 736.169 19, 736.097 19.258, 736.612 25.250 M 630 24.067 C 624.225 25.629, 617.614 26.927, 615.309 26.953 C 610.294 27.009, 609.043 28.488, 611.734 31.178 C 613.496 32.941, 614.170 33.031, 617.954 32.012 C 630.944 28.514, 639.132 27.182, 639.632 28.484 C 640.252 30.100, 636.019 38.636, 632.555 42.752 C 629.679 46.170, 629.441 47.291, 631.268 48.808 C 632.171 49.557, 634.540 49.304, 639.496 47.930 C 648.754 45.363, 650.837 45.440, 651.959 48.393 C 653.822 53.292, 647.882 73, 644.543 73 C 643.679 73, 642.099 72.455, 641.032 71.788 C 637.865 69.810, 637.399 71.804, 639.919 76.553 C 645.495 87.064, 652.992 78.036, 658.125 54.628 C 659.896 46.553, 659.931 45.544, 658.523 43.394 C 656.374 40.116, 653.535 39.665, 646.041 41.413 C 642.491 42.242, 639.416 42.749, 639.208 42.541 C 639 42.333, 641.114 38.777, 643.906 34.640 C 649.241 26.733, 649.441 25.174, 645.451 22.560 C 642.515 20.636, 642.792 20.609, 630 24.067 M 111.765 27.907 C 109.978 33.988, 105.854 40, 103.470 40 C 101.211 40, 100.914 41.672, 102.767 43.961 L 104.523 46.129 113.373 43.565 C 118.241 42.154, 124.454 41, 127.179 41 C 131.858 41, 132.096 41.126, 131.439 43.250 C 130.593 45.987, 127.114 53.055, 125.811 54.685 C 125.108 55.564, 123.671 55.113, 120.236 52.935 C 111.950 47.680, 110.399 49.537, 117.750 55.910 L 122.500 60.028 116.500 65.530 C 113.200 68.556, 107.239 72.712, 103.254 74.766 C 99.269 76.820, 96.007 78.873, 96.004 79.329 C 95.989 82.330, 115.021 73.865, 121.298 68.080 C 123.732 65.836, 125.955 64, 126.237 64 C 126.519 64, 129.535 67.600, 132.939 72 C 138.813 79.594, 142.220 81.839, 143.237 78.788 C 144.263 75.712, 142.189 71.997, 136.100 65.996 L 129.500 59.492 133.728 51.996 C 136.054 47.873, 138.932 43.468, 140.125 42.207 L 142.292 39.914 139.396 36.884 C 136.092 33.427, 136.467 33.415, 121.186 37.469 C 115.514 38.974, 110.719 40.047, 110.531 39.853 C 110.344 39.659, 112.169 37.025, 114.588 34 C 120.355 26.787, 120.555 26.271, 118.466 23.963 C 115.343 20.512, 113.644 21.512, 111.765 27.907 M 530.585 24.144 C 530.347 24.890, 529.952 28.779, 529.707 32.786 C 529.462 36.793, 529.018 40.315, 528.720 40.614 C 528.422 40.912, 522.947 41.413, 516.555 41.728 C 510.162 42.043, 504.706 42.667, 504.430 43.114 C 504.153 43.561, 504.900 44.900, 506.088 46.088 C 508.362 48.362, 508.614 48.366, 522.366 46.394 C 527.153 45.708, 527.220 45.735, 526.528 48.098 C 524.607 54.654, 519.538 63.734, 515.946 67.050 C 511.963 70.727, 511.962 70.731, 513.841 73.052 L 515.722 75.375 526.611 72.766 C 545.420 68.260, 544.580 68.241, 546.240 73.222 C 547.912 78.239, 550.219 79.122, 552.512 75.621 C 554.019 73.323, 554.022 72.848, 552.554 69.755 C 550.671 65.787, 540.364 55.302, 539.347 56.320 C 538.960 56.706, 539.655 58.820, 540.889 61.017 C 542.593 64.048, 542.817 65.111, 541.817 65.427 C 540.259 65.918, 525.511 68, 523.586 68 C 522.730 68, 524.117 64.341, 527.473 57.750 C 530.343 52.112, 532.910 46.825, 533.178 46 C 533.565 44.809, 536.374 44.380, 546.834 43.915 C 554.077 43.594, 560.291 43.042, 560.644 42.689 C 561.527 41.806, 559.020 38.956, 556.541 38.025 C 555.418 37.603, 550.900 37.852, 546.500 38.576 C 534.094 40.620, 534.845 41.035, 537.297 33.492 C 539.148 27.799, 539.231 26.806, 537.956 25.558 C 535.749 23.396, 531.109 22.506, 530.585 24.144 M 331.500 27.510 C 326 28.235, 317.563 28.867, 312.750 28.914 C 306.026 28.980, 304 29.319, 304 30.378 C 304 31.135, 304.733 32.363, 305.629 33.107 C 307.059 34.294, 307.173 36.243, 306.560 49.117 C 305.732 66.505, 306.544 70.826, 311.275 74.200 C 314.385 76.418, 315.222 76.500, 334.700 76.500 C 357.479 76.500, 359.842 75.889, 354.603 71.352 C 352.676 69.683, 351.003 69.034, 349.603 69.413 C 344.013 70.927, 328.934 72.119, 323.173 71.502 C 318.185 70.968, 316.149 70.240, 314.208 68.299 L 311.696 65.787 312.337 50.237 C 312.690 41.685, 313.106 34.560, 313.262 34.404 C 313.963 33.704, 335.073 32, 343.047 32 C 352.215 32, 354.467 31.038, 351.721 28.293 C 349.630 26.202, 343.285 25.956, 331.500 27.510 M 224.075 33.783 C 211.997 35.870, 209.110 36.080, 206.331 35.075 C 201.659 33.386, 200.968 34.268, 202.671 39.749 C 203.483 42.362, 204.398 50.125, 204.705 57 C 205.274 69.761, 206.027 73, 208.427 73 C 211.207 73, 211.369 68.694, 209.422 46.500 C 208.915 40.713, 208.981 40.495, 211.297 40.365 C 212.618 40.291, 219.352 39.440, 226.261 38.474 C 233.171 37.509, 239.608 37.019, 240.567 37.387 C 242.157 37.998, 242.253 39.361, 241.664 52.986 C 241.005 68.211, 241.661 73, 244.408 73 C 246.252 73, 246.773 71.010, 246.899 63.500 C 247.083 52.566, 248.217 42.547, 249.672 39 C 251.064 35.606, 251.023 35.432, 248.304 33.255 C 244.855 30.494, 242.863 30.537, 224.075 33.783 M 335.876 131.747 C 335.807 132.161, 335.853 139.755, 335.977 148.622 L 336.203 164.744 329.352 166.807 C 317.932 170.246, 316.669 170.464, 317.279 168.891 C 319.421 163.374, 323.204 144.549, 322.419 143.313 C 320.936 140.979, 316.386 138.638, 314.637 139.309 C 313.345 139.805, 313.220 140.448, 314.011 142.529 C 316.088 147.991, 314.176 162.891, 310.482 170.035 C 309.245 172.426, 309.195 173.340, 310.211 174.966 C 310.896 176.063, 312.023 177.179, 312.715 177.444 C 313.407 177.709, 318.472 176.143, 323.971 173.963 C 329.470 171.784, 334.637 170, 335.454 170 C 336.670 170, 336.989 172.209, 337.219 182.238 C 337.457 192.611, 337.748 194.523, 339.129 194.788 C 340.147 194.983, 340.962 194.238, 341.302 192.800 C 341.601 191.535, 341.993 177.708, 342.173 162.073 L 342.499 133.646 339.250 132.320 C 337.462 131.591, 335.944 131.333, 335.876 131.747 M 55.138 135.171 C 54.648 136.452, 53.718 139.750, 53.071 142.500 C 52.424 145.250, 50.706 149.975, 49.253 153 C 47.801 156.025, 46.274 159.262, 45.859 160.193 C 45.328 161.388, 46.532 163.842, 49.954 168.536 C 52.620 172.193, 56.084 178.056, 57.651 181.566 C 60.859 188.749, 63.041 189.730, 65.046 184.889 C 66.670 180.967, 65.218 178.006, 56.719 167.910 L 50.758 160.828 53.420 156.164 C 54.883 153.599, 57.506 148.695, 59.247 145.266 L 62.414 139.031 60.396 136.329 C 57.689 132.702, 56.207 132.376, 55.138 135.171 M 31.111 139.843 C 30.478 143.057, 28.204 149.319, 26.057 153.759 L 22.154 161.831 27.393 169.749 C 30.275 174.104, 33.667 180.217, 34.932 183.333 C 37.547 189.776, 39.469 190.486, 41.469 185.750 C 42.726 182.771, 42.637 182.125, 40.397 178 C 39.053 175.525, 35.695 170.855, 32.936 167.622 C 30.177 164.388, 28.050 161.413, 28.209 161.010 C 28.369 160.607, 30.957 155.556, 33.961 149.785 C 39.361 139.409, 39.402 139.263, 37.688 136.646 C 34.689 132.069, 32.423 133.171, 31.111 139.843 M 429.568 140.822 C 428.112 144.631, 425.304 150.392, 423.326 153.624 C 421.349 156.856, 419.004 160.730, 418.116 162.233 L 416.500 164.965 424.638 172.460 C 429.114 176.582, 434.425 182.440, 436.441 185.477 C 440.424 191.478, 441.390 192.009, 442.965 189.066 C 445.788 183.791, 443.805 180.549, 431.969 171.084 C 427.036 167.140, 423 163.710, 423 163.462 C 423 163.214, 425.587 159.508, 428.750 155.226 C 431.913 150.944, 435.396 145.755, 436.491 143.695 C 438.319 140.256, 438.357 139.727, 436.957 137.232 C 434.230 132.375, 432.469 133.230, 429.568 140.822 M 138.500 136.031 C 134.602 136.811, 110.016 138.832, 99 139.277 C 92.795 139.529, 91.840 141.068, 96 144.116 C 98.026 145.600, 99.258 145.782, 102.500 145.073 C 104.700 144.592, 109.075 143.899, 112.223 143.531 L 117.946 142.863 116.541 147.528 C 115.769 150.095, 113.981 153.941, 112.569 156.076 C 111.156 158.210, 110 160.394, 110 160.929 C 110 163.122, 113.411 163.770, 117.933 162.436 C 126.527 159.901, 133.883 159.154, 135.154 160.686 C 136.488 162.293, 135.045 170.059, 131.784 178.819 C 129.489 184.987, 128.304 185.725, 124.147 183.576 C 119.827 181.342, 119.124 183.350, 122.686 187.751 C 127.248 193.388, 128.477 193.831, 131.590 190.967 C 135.257 187.592, 138.322 180.326, 140.935 168.817 C 143.050 159.500, 143.067 159.032, 141.369 156.441 C 139.685 153.870, 139.331 153.776, 133.552 154.374 C 130.224 154.718, 125.547 155.290, 123.160 155.644 L 118.821 156.287 121.410 151.177 C 122.835 148.366, 124 145.219, 124 144.184 C 124 142.496, 125.124 142.232, 134.836 141.643 C 140.796 141.281, 147.096 141.269, 148.836 141.617 C 152.743 142.399, 153.124 140.405, 149.686 137.174 C 147.271 134.906, 145.185 134.693, 138.500 136.031 M 237.500 137.038 C 234.200 137.448, 224.889 137.832, 216.809 137.891 C 208.729 137.951, 201.874 138.396, 201.575 138.879 C 200.881 140.002, 205.830 145, 207.636 145 C 209.326 145, 209.425 151.129, 207.955 164.789 C 206.757 175.930, 204.901 182.393, 201.433 187.503 C 198.693 191.542, 198.395 193, 200.313 193 C 202.495 193, 206.732 187.838, 209.478 181.835 C 213.064 173.995, 214.962 164.156, 214.983 153.309 C 214.992 148.254, 215.416 143.861, 215.923 143.547 C 216.431 143.233, 225.319 142.719, 235.673 142.404 C 246.028 142.090, 255.130 141.633, 255.900 141.390 C 256.968 141.053, 256.749 140.362, 254.975 138.474 C 252.449 135.785, 249.534 135.545, 237.500 137.038 M 547.500 138.079 C 544.750 138.525, 533.837 139.210, 523.250 139.601 C 505.557 140.254, 504 140.459, 504 142.133 C 504 143.134, 505.074 144.657, 506.386 145.517 C 508.378 146.822, 509.823 146.910, 515.136 146.048 C 518.636 145.480, 523.160 145.012, 525.189 145.008 C 528.821 145, 528.888 145.072, 529.586 149.725 C 529.976 152.324, 530.033 162.404, 529.713 172.125 C 529.101 190.732, 529.697 194.098, 533.355 192.694 C 535.169 191.998, 535.183 191.772, 535.265 161.250 L 535.311 144 541.405 143.918 C 544.757 143.873, 550.009 143.902, 553.075 143.982 C 560.271 144.169, 562.384 142.234, 558.403 139.102 C 555.553 136.860, 555.206 136.828, 547.500 138.079 M 151 243.398 C 128.596 255.942, 126.210 257.980, 128.704 262.436 C 129.397 263.674, 130.620 263.246, 135.869 259.927 C 139.350 257.726, 147.328 252.980, 153.599 249.379 C 159.870 245.779, 165 242.490, 165 242.072 C 165 241.277, 161.656 237.971, 160.921 238.039 C 160.690 238.061, 156.225 240.472, 151 243.398 M 625.941 250.199 C 612.530 273.990, 603.727 292.190, 603.727 296.128 C 603.727 298.291, 603.912 300.246, 604.139 300.472 C 604.365 300.698, 608.589 299.978, 613.525 298.871 C 625.385 296.212, 647.224 293.010, 653.542 293.005 L 658.583 293 661.327 298.593 C 663.670 303.371, 664.291 304.003, 665.590 302.926 C 669.256 299.883, 669.183 298.319, 664.988 289.977 C 661.690 283.418, 649.628 262.323, 648.540 261.213 C 647.973 260.633, 643 263.350, 643 264.239 C 643 264.744, 645.700 269.550, 649 274.920 C 652.300 280.290, 655 285.114, 655 285.640 C 655 286.166, 649.712 287.128, 643.250 287.778 C 636.788 288.428, 627.303 289.684, 622.173 290.570 C 617.043 291.455, 612.627 291.960, 612.359 291.692 C 611.668 291.002, 617.468 279.743, 627.967 261.393 C 632.935 252.709, 637 245.255, 637 244.828 C 637 244.401, 635.677 243.367, 634.061 242.531 L 631.121 241.011 625.941 250.199 M 526.730 249.037 C 526.429 252.358, 525.676 255.685, 525.056 256.432 C 524.328 257.310, 520.325 258.046, 513.715 258.518 C 508.097 258.918, 502.375 259.675, 501 260.200 L 498.500 261.154 501.375 263.636 C 502.956 265.001, 504.797 265.908, 505.468 265.651 C 508.109 264.637, 521.987 262.653, 522.543 263.210 C 523.239 263.906, 518.506 273.569, 517.019 274.488 C 515.607 275.361, 515.745 276.602, 517.445 278.302 C 518.705 279.562, 520.251 279.500, 529.521 277.814 C 541.664 275.607, 543 276.009, 542.999 281.872 C 542.998 286.093, 538.543 296.039, 534.515 300.810 C 530.844 305.159, 532.363 306.797, 537.089 303.586 C 539.022 302.272, 541.801 299.388, 543.264 297.177 C 546.460 292.347, 552.088 276.394, 551.311 274.367 C 551.006 273.575, 549.457 272.253, 547.866 271.431 C 545.282 270.094, 543.969 270.115, 535.484 271.631 C 530.264 272.563, 525.765 273.098, 525.487 272.820 C 524.588 271.921, 529.160 262.153, 530.768 261.536 C 531.624 261.207, 539.112 260.732, 547.408 260.481 C 562.635 260.018, 564.484 259.493, 561.886 256.362 C 559.656 253.676, 556.312 252.991, 550.752 254.080 C 545.612 255.088, 532 256.797, 532 256.435 C 532 256.334, 532.666 254.365, 533.479 252.059 C 534.910 248.005, 534.878 247.787, 532.525 245.434 C 528.568 241.477, 527.347 242.237, 526.730 249.037 M 240.777 245.065 C 239.829 245.617, 232.533 246.413, 224.563 246.832 C 216.593 247.252, 209.794 247.873, 209.455 248.212 C 208.631 249.035, 210.614 252.640, 212.222 253.245 C 212.925 253.509, 218 253.128, 223.500 252.399 C 229 251.669, 235.412 251.056, 237.750 251.036 C 241.522 251.004, 241.992 251.253, 241.930 253.250 C 241.749 259.049, 241.081 259.429, 229.137 260.526 C 220.521 261.318, 217.457 261.269, 215.734 260.312 C 211.296 257.846, 210.869 258.453, 211.549 266.250 C 212.722 279.691, 208.655 292.189, 200.585 299.946 C 194.148 306.134, 197.308 307.904, 204.718 302.262 C 211.873 296.813, 218 283.089, 218 272.511 C 218 266.226, 217.679 266.363, 234.500 265.462 C 250.741 264.592, 252.346 263.990, 248.107 260.360 C 246.104 258.645, 246.309 256.629, 249.096 250.633 C 250.316 248.006, 250.233 247.607, 248.103 245.883 C 245.525 243.795, 243.369 243.554, 240.777 245.065 M 40.360 249.250 C 40.703 251.588, 41.282 259.238, 41.646 266.250 L 42.309 279 39.794 279 C 38.411 279, 35.121 279.296, 32.484 279.657 L 27.689 280.314 28.390 271.036 C 28.992 263.064, 28.851 261.492, 27.390 259.879 C 26.455 258.845, 24.893 258, 23.918 258 C 22.283 258, 22.188 259.029, 22.693 271.250 C 23.299 285.925, 24.138 288.169, 28.310 286.268 C 29.622 285.671, 33.238 284.864, 36.347 284.476 L 42 283.770 42 291.885 L 42 300 28.417 300 C 14.115 300, 12.990 300.452, 18.063 304.160 C 20.232 305.745, 21.543 305.837, 30 304.997 C 35.225 304.479, 47.263 304.042, 56.750 304.027 C 71.285 304.004, 74 303.768, 74 302.523 C 74 301.711, 72.894 300.322, 71.543 299.436 C 69.472 298.079, 67.342 297.939, 57.998 298.544 L 46.911 299.263 47.206 291.382 L 47.500 283.500 53.750 283.202 C 58.853 282.959, 60 283.189, 60 284.452 C 60 286.485, 63.611 286.457, 64.393 284.418 C 64.727 283.548, 65.038 280.286, 65.084 277.168 C 65.131 274.051, 65.525 268.800, 65.960 265.500 C 66.836 258.853, 66.105 257.246, 61.996 256.782 L 59.500 256.500 59.859 267.250 L 60.218 278 53.501 278 L 46.783 278 47.141 262.920 C 47.474 248.918, 47.361 247.739, 45.559 246.420 C 44.491 245.639, 42.744 245, 41.677 245 C 39.963 245, 39.809 245.496, 40.360 249.250 M 442 246.049 C 439.525 246.489, 430.788 247.332, 422.585 247.923 C 414.382 248.514, 407.458 249.209, 407.199 249.467 C 406.941 249.726, 407.510 251.129, 408.463 252.585 C 410.068 255.033, 410.564 255.183, 415.099 254.581 L 420 253.931 420 277.400 C 420 299.396, 420.662 306, 422.868 306 C 424.925 306, 425.401 301.396, 425.780 277.820 L 426.177 253.140 432.339 252.484 C 435.727 252.123, 440.075 251.979, 442 252.164 C 445.314 252.482, 445.490 252.686, 445.306 256 C 445.088 259.918, 440.639 273.761, 439.103 275.297 C 438.447 275.953, 437.097 275.869, 435.116 275.048 C 430.413 273.100, 429.699 274.601, 433.097 279.293 C 437.544 285.432, 438.512 285.688, 442.445 281.755 C 445.061 279.139, 446.556 276.016, 449.059 267.937 C 450.837 262.197, 452.985 256.037, 453.832 254.249 C 455.327 251.091, 455.289 250.911, 452.499 247.999 C 449.473 244.841, 449.147 244.780, 442 246.049 M 338.896 246.437 C 337.871 247.463, 314.059 249.962, 311.049 249.360 L 307.746 248.699 308.410 252.600 C 308.938 255.706, 310.076 288.470, 310.014 298.781 C 309.996 301.804, 312.890 302.871, 314.635 300.484 C 316.079 298.510, 322.656 297.199, 331.760 297.073 C 337.105 296.999, 337.621 297.289, 341.420 302.500 C 342.819 304.419, 342.951 304.428, 344.689 302.717 C 346.286 301.146, 346.577 298.307, 347.155 278.717 C 347.515 266.498, 348.126 255.060, 348.511 253.300 C 349.143 250.418, 348.879 249.896, 345.856 248.054 C 342.682 246.119, 339.868 245.465, 338.896 246.437 M 146.315 262.588 C 125.420 276.576, 124.659 277.343, 126.618 282.447 C 127.157 283.850, 127.639 283.753, 130.368 281.688 C 132.091 280.385, 135.933 277.579, 138.907 275.453 L 144.314 271.587 143.744 279.906 C 143.430 284.481, 143.426 292.449, 143.734 297.612 L 144.294 307 147.085 307 L 149.876 307 150.188 288.250 C 150.360 277.938, 150.141 269.235, 149.701 268.911 C 149.262 268.587, 152.974 265.740, 157.951 262.585 C 162.928 259.430, 167 256.503, 167 256.079 C 167 255.202, 163.654 252, 162.736 252 C 162.402 252, 155.013 256.764, 146.315 262.588 M 324.750 253.310 L 315 254.299 315 273.658 L 315 293.016 327.996 292.758 L 340.992 292.500 341.121 290 C 341.191 288.625, 341.158 280.075, 341.048 271 C 340.879 257.156, 340.587 254.299, 339.232 253.250 C 338.344 252.563, 336.916 252.072, 336.059 252.161 C 335.201 252.249, 330.113 252.766, 324.750 253.310 M 321.565 265.896 C 320.535 267.562, 328.428 279.500, 330.560 279.500 C 332.954 279.500, 334.881 274.621, 333.409 272.287 C 331.912 269.914, 322.290 264.722, 321.565 265.896 M 56.140 360.835 C 54.970 364.044, 52.220 369.444, 50.028 372.835 C 46.596 378.145, 45.625 379, 43.028 379 L 40.012 379 40.629 397.250 C 41.082 410.630, 41.612 415.889, 42.616 416.957 C 45.566 420.095, 46.353 416.606, 46.544 399.546 L 46.729 383.051 52.313 377.275 C 63.707 365.491, 66.192 360.293, 62.171 356.655 C 59.268 354.028, 58.404 354.627, 56.140 360.835 M 466.512 356.069 C 463.768 356.527, 453.193 357.644, 443.012 358.549 C 432.830 359.455, 424.351 360.339, 424.169 360.513 C 423.987 360.686, 424.340 361.767, 424.954 362.914 C 426.212 365.265, 428.676 365.502, 437.066 364.078 C 440.055 363.570, 444.637 362.951, 447.250 362.701 L 452 362.246 452 371.020 L 452 379.795 445.668 380.897 C 435.633 382.645, 435.778 382.705, 438.027 377.750 C 440.615 372.047, 440.536 368.489, 437.777 366.557 C 436.555 365.701, 435.267 365, 434.915 365 C 434.563 365, 433.973 367.587, 433.602 370.750 C 433.232 373.913, 431.987 378.450, 430.835 380.834 C 428.958 384.717, 428.899 385.327, 430.264 386.693 C 431.576 388.004, 432.811 388.052, 439.144 387.034 C 443.190 386.384, 447.333 385.615, 448.351 385.326 C 449.980 384.864, 450.117 385.204, 449.493 388.150 C 447.993 395.230, 441.870 404.934, 434.733 411.541 C 427.526 418.213, 427.666 419.741, 435.135 415.931 C 443.588 411.619, 452.300 400.248, 455.485 389.368 C 457.128 383.754, 458.271 383.038, 465.628 383.014 C 471.738 382.993, 472.582 384.536, 471.074 392.975 C 470.395 396.771, 468.584 402.438, 467.048 405.570 C 464.402 410.967, 464.106 414.329, 466.165 415.602 C 468.943 417.319, 473.031 409.025, 476.565 394.500 C 479.513 382.381, 479.557 380.814, 477.011 378.510 C 475.331 376.990, 473.948 376.811, 468.095 377.355 C 464.285 377.709, 460.461 378.269, 459.598 378.601 C 458.242 379.121, 458.044 378.040, 458.145 370.652 L 458.261 362.102 461.217 361.452 C 462.843 361.095, 467.808 360.960, 472.251 361.152 C 481.103 361.533, 482.622 360.622, 479.063 357.063 C 476.875 354.875, 474.692 354.702, 466.512 356.069 M 653.614 355.816 C 653.337 356.264, 652.169 359.147, 651.018 362.221 C 648.863 367.982, 638.559 385.241, 636.922 385.833 C 635.528 386.337, 635.818 390.604, 637.330 391.859 C 638.308 392.671, 640.605 392.558, 646.004 391.432 C 650.043 390.590, 654.420 390.036, 655.731 390.200 C 657.996 390.485, 657.846 390.824, 652.679 397.075 C 649.690 400.691, 644.940 405.342, 642.122 407.410 C 639.305 409.478, 637 411.737, 637 412.430 C 637 414.649, 640.789 417.278, 643.215 416.742 C 644.472 416.465, 651.964 414.778, 659.863 412.994 C 674.894 409.598, 675.943 409.672, 675.985 414.128 C 675.993 415.023, 676.617 416.267, 677.371 416.893 C 679.598 418.741, 683.335 415.063, 683.223 411.131 C 683.080 406.115, 672.297 394.092, 670.520 396.968 C 670.189 397.503, 670.645 399.346, 671.533 401.064 C 672.421 402.781, 673.002 404.312, 672.824 404.466 C 671.976 405.201, 649 409.648, 649 409.078 C 649 408.719, 651.298 406.192, 654.107 403.462 C 662.034 395.760, 675 380.054, 675 378.154 C 675 375.886, 672.219 372, 670.595 372 C 669.885 372, 668.539 373.688, 667.605 375.750 C 664.172 383.328, 663.277 383.927, 653.993 384.858 C 649.322 385.327, 645.366 385.604, 645.202 385.474 C 645.038 385.343, 648.075 380.215, 651.952 374.076 C 659.313 362.421, 660.215 359.409, 657.171 356.655 C 655.126 354.804, 654.352 354.621, 653.614 355.816 M 245.558 362.894 L 246.238 369.789 243.369 370.349 C 241.791 370.656, 235.662 371.208, 229.750 371.574 C 218.426 372.274, 217.135 373.003, 221.007 376.506 C 222.925 378.242, 223.428 378.249, 232.314 376.661 C 237.430 375.748, 242.827 375, 244.308 375 C 246.811 375, 247 375.301, 247 379.271 L 247 383.542 240.943 384.693 C 233.830 386.045, 230.628 387.922, 227.956 392.304 C 223.160 400.169, 226.924 410.336, 236.437 415.213 C 242.144 418.139, 254.438 417.397, 261.679 413.690 C 270.564 409.141, 270.324 406.613, 261.328 409.979 C 246.649 415.471, 232 410.212, 232 399.450 C 232 395.141, 237.627 390.311, 243.560 389.526 C 246.277 389.167, 249.175 388.784, 250 388.676 C 251.142 388.526, 251.569 386.785, 251.791 381.380 L 252.082 374.282 258.791 373.648 C 262.481 373.299, 268.313 373.011, 271.750 373.007 C 278.850 372.999, 279.914 371.562, 274.979 368.646 C 272.287 367.056, 271.113 366.984, 264.229 367.986 C 259.978 368.604, 255.488 369.248, 254.250 369.416 C 252.166 369.700, 252 369.340, 252 364.516 C 252 359.019, 250.090 356, 246.611 356 C 245.070 356, 244.954 356.761, 245.558 362.894 M 357.392 360.750 C 357.758 363.363, 358.328 368.044, 358.661 371.152 L 359.265 376.805 351.382 378.456 C 347.047 379.364, 342.712 380.265, 341.750 380.460 C 340.178 380.777, 340 379.810, 340 370.932 L 340 361.051 337.050 359.526 C 335.427 358.687, 333.839 358, 333.522 358 C 333.204 358, 333.246 363.349, 333.615 369.886 L 334.287 381.773 328.894 382.511 C 325.927 382.916, 322.439 383.650, 321.141 384.141 C 319.155 384.892, 318.984 385.276, 320.059 386.571 C 322.573 389.600, 324.638 390.014, 329.651 388.493 C 332.318 387.684, 334.613 387.017, 334.750 387.011 C 334.887 387.005, 335 388.492, 335 390.316 C 335 396.644, 337.186 405.516, 339.497 408.565 C 342.648 412.723, 347.619 414.001, 360.616 413.994 C 376.905 413.986, 382.848 411.567, 376.614 407.483 C 374.446 406.062, 373.400 406.071, 365.155 407.579 C 346.253 411.037, 341.457 407.596, 340.694 390.028 L 340.500 385.555 348.896 383.757 C 353.514 382.768, 357.511 382.177, 357.777 382.444 C 358.044 382.711, 357.301 387.108, 356.124 392.215 C 353.660 402.914, 353.652 403, 355.055 403 C 356.488 403, 360.465 393.770, 362.009 386.859 C 363.214 381.466, 363.428 381.192, 366.885 380.620 C 368.873 380.291, 372.386 380.017, 374.691 380.011 C 379.738 379.998, 380.771 378.771, 378.036 376.036 C 375.809 373.809, 372.333 373.470, 367.102 374.971 L 363.717 375.941 364.375 368.056 C 365.016 360.366, 364.967 360.119, 362.381 358.085 C 357.912 354.570, 356.624 355.258, 357.392 360.750 M 25.116 366.250 C 28.205 369.138, 31.977 373.413, 33.499 375.750 C 36.520 380.390, 38.367 381.052, 39.965 378.066 C 41.548 375.107, 41.229 373.426, 38.460 370.135 C 35.677 366.828, 24.914 361, 21.590 361 C 19.917 361.001, 20.622 362.049, 25.116 366.250 M 155.500 362.038 C 152.200 362.448, 143.114 362.832, 135.309 362.891 C 119.907 363.009, 117.833 363.739, 122.208 367.502 C 124.671 369.621, 124.991 369.645, 134.618 368.404 C 140.053 367.703, 144.831 367.454, 145.236 367.851 C 145.641 368.248, 146.091 370.760, 146.236 373.434 L 146.500 378.296 141 379.429 C 130.380 381.616, 125 387.335, 125 396.436 C 125 407.942, 134.295 415, 149.448 415 C 157.523 415, 164.042 413.145, 168.500 409.579 C 172.768 406.165, 171.195 405.576, 164.148 407.950 C 157.366 410.235, 147.251 410.651, 141.899 408.866 C 137.065 407.253, 132.140 402.261, 131.378 398.203 C 129.912 390.387, 136.983 384.069, 147.250 384.022 L 152 384 152 375.500 L 152 367 163 367 C 169.667 367, 174 366.606, 174 366 C 174 365.450, 173.100 364.100, 172 363 C 169.846 360.846, 166.626 360.658, 155.500 362.038 M 761.500 364.599 C 758.750 365.380, 752.548 366.404, 747.717 366.876 C 742.886 367.347, 738.652 368.015, 738.307 368.360 C 737.244 369.423, 741.185 373.001, 743.405 372.988 C 744.557 372.982, 747.851 372.350, 750.724 371.586 C 753.597 370.821, 758.207 369.884, 760.969 369.504 C 765.177 368.926, 766.097 369.089, 766.644 370.515 C 767.428 372.558, 764.800 381.234, 762.035 385.736 L 760.046 388.972 754.108 385.736 C 750.842 383.956, 747.818 382.851, 747.388 383.281 C 746.957 383.710, 749.015 386.170, 751.961 388.747 L 757.317 393.432 750.908 399.240 C 747.350 402.466, 740.609 407.060, 735.750 409.571 C 730.938 412.059, 727 414.359, 727 414.683 C 727 415.007, 729.067 414.988, 731.594 414.642 C 738.137 413.745, 747.444 408.982, 755.062 402.631 L 761.624 397.161 768.895 405.580 C 775.740 413.508, 779.253 415.740, 780.237 412.788 C 781.500 408.999, 777.400 403.195, 768.161 395.691 L 764.821 392.979 767.939 387.454 C 769.654 384.415, 771.980 379.582, 773.108 376.714 C 774.235 373.847, 775.871 370.708, 776.743 369.740 C 778.202 368.120, 778.141 367.779, 775.990 365.490 C 773.280 362.605, 769.367 362.365, 761.500 364.599 M 540.479 372.098 C 531.928 378.345, 526.876 381, 523.540 381 C 520.021 381, 520.361 382.828, 524.180 384.434 C 528.330 386.178, 531.096 385.177, 538.035 379.419 C 546.828 372.122, 546.682 372.131, 548.027 378.752 C 550.510 390.967, 559.903 404.929, 569.371 410.477 C 573.336 412.801, 573.946 412.877, 580.533 411.873 C 584.365 411.289, 587.892 410.439, 588.371 409.984 C 588.851 409.529, 586.146 408.235, 582.361 407.107 C 569.456 403.264, 559.045 395.452, 554.897 386.500 C 552.766 381.900, 552.455 375.846, 554.206 373.042 C 555.199 371.452, 555.083 370.749, 553.551 369.056 C 550.716 365.924, 548.096 366.533, 540.479 372.098 M 239.397 469.750 C 240.773 477.592, 241.065 482.545, 240.222 483.777 C 239.686 484.561, 235.386 485.398, 229.090 485.945 C 223.447 486.435, 218.580 487.087, 218.273 487.394 C 217.587 488.080, 219.771 490.809, 221.918 491.950 C 222.833 492.436, 226.453 492.217, 230.500 491.432 C 240.581 489.476, 240.023 489.141, 238.384 496.168 C 235.477 508.627, 229.512 518.250, 220.715 524.667 C 216.113 528.025, 215.768 528.511, 217.786 528.810 C 220.650 529.234, 227.301 525.378, 232.386 520.346 C 237.185 515.596, 242.540 504.636, 244.279 496.005 C 245.249 491.194, 246.052 489.421, 247.379 489.165 C 249.057 488.842, 249.125 489.670, 248.458 502.260 C 247.634 517.820, 248.433 521.643, 253.085 524.391 C 256.768 526.566, 265.693 527.519, 273.390 526.557 C 277.812 526.005, 279 525.483, 279 524.097 C 279 520.860, 274.793 519.584, 268.303 520.854 C 261.538 522.178, 255.607 521.003, 254.012 518.022 C 252.707 515.585, 252.736 509.187, 254.089 501 C 254.679 497.425, 255.171 493.035, 255.181 491.244 C 255.203 487.411, 255.954 487.126, 267 486.753 C 275.464 486.467, 276.991 484.745, 271.301 481.902 C 268.347 480.426, 267.389 480.443, 258.801 482.121 C 245.802 484.663, 246.771 485.090, 247.553 477.162 C 248.205 470.537, 248.141 470.256, 245.478 468.162 C 243.967 466.973, 241.832 466, 240.734 466 C 238.977 466, 238.817 466.449, 239.397 469.750 M 122.737 481.860 C 123.200 493.549, 123.025 496.244, 121.620 499.060 C 120.031 502.246, 120.045 502.489, 121.933 504.377 C 123.854 506.298, 124.108 506.308, 130.706 504.695 C 142.353 501.848, 163.463 498.580, 165.402 499.324 C 166.991 499.934, 167.160 500.734, 166.597 504.979 C 166.236 507.698, 165.069 512.652, 164.004 515.988 C 161.853 522.719, 162.692 527, 166.161 527 C 167.172 527, 168 526.825, 168 526.610 C 168 524.519, 172.361 505.511, 173.605 502.181 C 175.177 497.972, 175.160 497.799, 172.935 495.431 C 171.646 494.059, 169.513 493, 168.038 493 C 165.698 493, 136.088 498.102, 130.116 499.534 L 127.733 500.105 128.391 491.803 C 128.754 487.236, 129.312 481.165, 129.633 478.312 C 130.154 473.671, 129.945 472.854, 127.653 470.562 C 122.595 465.504, 122.132 466.568, 122.737 481.860 M 41.500 470.551 C 37.650 471.280, 30.788 471.905, 26.250 471.939 C 17.230 472.006, 16.014 473.014, 20.065 477.065 C 21.642 478.642, 22.842 478.974, 25.141 478.469 L 28.151 477.808 27.458 482.654 C 26.603 488.626, 23.457 496.276, 20.908 498.584 C 18.524 500.741, 18.522 501.522, 20.893 503.893 C 22.748 505.748, 22.965 505.748, 31.957 503.904 C 43.960 501.442, 58.060 500.062, 60.181 501.141 C 62.331 502.235, 61.516 505.278, 55.924 517.046 C 53.287 522.594, 51.952 526.688, 52.167 528.568 C 52.591 532.282, 55.582 533.062, 56.976 529.821 C 69.298 501.169, 69.861 499.553, 68.168 497.657 C 65.322 494.470, 63.447 493.987, 57.846 494.995 C 49.148 496.560, 28.727 499.061, 28.281 498.615 C 28.055 498.388, 29.275 495.418, 30.993 492.015 C 34.549 484.969, 34.631 480.996, 31.250 479.513 C 30.012 478.970, 29 478.260, 29 477.936 C 29 477.139, 43.454 474.985, 48.750 474.993 C 53.958 475.001, 54.043 475.660, 50.038 485.071 C 48.408 488.900, 47.331 492.700, 47.645 493.516 C 48.858 496.679, 51.142 494.694, 54.856 487.250 C 56.982 482.988, 59.558 478.077, 60.579 476.337 C 62.435 473.177, 62.434 473.172, 59.968 471.120 C 57.067 468.706, 52.051 468.551, 41.500 470.551 M 671.974 470.250 C 671.422 475.596, 660.918 495.967, 658.701 495.991 C 658.262 495.996, 653.770 493.032, 648.719 489.405 C 637.921 481.652, 634.334 479.651, 633.538 480.938 C 633.222 481.450, 636.684 484.996, 641.231 488.817 C 645.779 492.639, 650.789 497.134, 652.364 498.806 L 655.228 501.847 651.498 506.308 C 647.103 511.566, 641.840 516.049, 633.250 521.852 C 627.385 525.814, 625.555 528, 628.104 528 C 631.030 528, 643.531 520.167, 651.342 513.438 L 660.066 505.924 662.783 509.140 C 664.277 510.908, 667.420 515.074, 669.767 518.397 C 676.071 527.323, 679.003 528.211, 678.996 521.191 C 678.991 516.477, 676.619 512.639, 669.454 505.754 L 663.715 500.240 666.271 496.870 C 670.488 491.310, 678 478.067, 678 476.194 C 678 473.799, 675.205 470, 673.443 470 C 672.649 470, 671.988 470.113, 671.974 470.250 M 345 473.623 C 345 477.911, 338.498 496.044, 333.112 506.777 C 329.725 513.526, 326.863 517.792, 324.308 519.898 C 321.155 522.497, 320.707 523.310, 321.628 524.759 C 322.991 526.903, 327.191 526.948, 346.302 525.023 C 357.709 523.873, 361.669 523.854, 369.126 524.909 C 374.088 525.611, 378.380 525.953, 378.665 525.668 C 379.674 524.659, 377.834 520.981, 375.765 519.874 C 373.236 518.521, 360.743 518.616, 344.688 520.110 C 338.192 520.715, 332.641 520.975, 332.354 520.687 C 332.066 520.400, 334.551 515.243, 337.875 509.227 C 344.935 496.449, 352 480.581, 352 477.502 C 352 475.238, 348.210 471, 346.186 471 C 345.533 471, 345 472.181, 345 473.623 M 452.748 473.585 C 452.427 473.907, 452.540 475.369, 452.999 476.835 C 454.293 480.958, 454.924 502.586, 454.010 511.500 C 453.344 517.996, 453.468 519.812, 454.670 521.161 C 456.662 523.398, 462.031 525.925, 463.552 525.342 C 464.989 524.790, 478 504.786, 478 503.127 C 478 500.974, 476.616 502.042, 469.744 509.500 C 462.749 517.091, 460.707 518.284, 459.607 515.418 C 458.336 512.107, 459.057 485.585, 460.529 481.500 C 461.321 479.300, 461.977 477.424, 461.985 477.332 C 461.993 477.239, 460.484 476.226, 458.632 475.082 C 455.154 472.932, 453.757 472.577, 452.748 473.585 M 439.412 488.250 C 439.286 508.633, 438.059 512.306, 428.166 521.917 C 421.695 528.204, 420.968 529.225, 423.394 528.616 C 428.154 527.421, 436.762 521.316, 439.483 517.206 C 443.245 511.520, 443.987 508.083, 445.033 491.500 C 445.889 477.934, 445.819 476.380, 444.299 475.250 C 443.374 474.563, 441.916 474, 441.059 474 C 439.724 474, 439.487 476.049, 439.412 488.250 M 777.324 482.250 C 777.654 485.137, 778.232 492.788, 778.608 499.250 L 779.294 511 771.181 511 C 766.719 511, 758.053 511.700, 751.922 512.555 C 745.792 513.410, 740.539 513.872, 740.249 513.582 C 739.958 513.292, 740.498 510.287, 741.447 506.903 C 742.396 503.520, 743.421 497.477, 743.724 493.473 L 744.274 486.193 741.044 484.523 C 739.268 483.604, 737.549 483.118, 737.225 483.442 C 736.900 483.766, 736.605 489.087, 736.568 495.267 C 736.507 505.349, 736.226 507.055, 733.832 511.895 C 731.678 516.248, 731.384 517.643, 732.310 519.125 C 733.985 521.807, 735.281 522.021, 740.447 520.466 C 746.900 518.524, 764.563 516, 771.702 516 L 777.647 516 778.574 519.750 C 779.259 522.525, 780.020 523.500, 781.500 523.500 C 783.419 523.500, 783.522 522.652, 784.045 502.500 L 784.589 481.500 782.239 479.250 C 780.946 478.012, 779.177 477, 778.307 477 C 776.989 477, 776.825 477.877, 777.324 482.250 M 567.500 494.587 C 563.100 495.306, 551.984 496.214, 542.797 496.603 C 524.890 497.362, 523.197 497.957, 527.482 501.983 C 529.631 504.002, 530.250 504.094, 535.160 503.122 C 544.485 501.277, 559.531 500, 571.961 500 C 585.091 500, 586.614 499.202, 581.365 495.073 C 578.427 492.762, 578.618 492.768, 567.500 494.587" stroke="none" fill="black" fill-rule="evenodd"/>
</svg>